<svg width="56" height="56" viewBox="0 0 56 56" fill="none" xmlns="http://www.w3.org/2000/svg">
<g clip-path="url(#clip0_2139_4098)">
<path d="M56.3086 56L56.3086 0L0.000522614 -2.51332e-09L0.000522611 56L56.3086 56Z" fill="#E0FE71" style="fill:#E0FE71;fill:color(display-p3 0.8784 0.9961 0.4431);fill-opacity:1;"/>
<path d="M6.74414 17.5992V48.8468H38.164L49.5642 14.4178V7.15234H18.2706L6.74414 17.5992Z" fill="#F6FFC7" fill-opacity="0.19" style="fill:#F6FFC7;fill:color(display-p3 0.9647 1.0000 0.7804);fill-opacity:0.19;"/>
<path d="M38.1644 49.23H6.7445C6.53182 49.23 6.35938 49.0585 6.35938 48.847V17.5994C6.35938 17.4915 6.40485 17.3889 6.48495 17.3162L18.0114 6.86937C18.0824 6.80501 18.1747 6.76953 18.2706 6.76953H49.5638C49.7765 6.76953 49.9489 6.94104 49.9489 7.15255V14.418C49.9489 14.4587 49.9423 14.4991 49.9297 14.5377L38.5296 48.9667C38.4781 49.1239 38.3305 49.23 38.1644 49.23ZM7.12962 48.4644H37.8856L49.1794 14.3568V7.53522H18.4203L7.12962 17.7685V48.4644Z" fill="black" style="fill:black;fill-opacity:1;"/>
<path d="M49.5635 14.801H18.2699C18.0572 14.801 17.8848 14.6295 17.8848 14.418V7.15255C17.8848 6.94104 18.0572 6.76953 18.2699 6.76953H49.5632C49.7758 6.76953 49.9483 6.94104 49.9483 7.15255V14.418C49.9483 14.6295 49.7762 14.801 49.5635 14.801ZM18.655 14.035H49.1784V7.53522H18.655V14.035Z" fill="black" style="fill:black;fill-opacity:1;"/>
<path d="M38.1644 49.2305H6.7445C6.53182 49.2305 6.35938 49.059 6.35938 48.8474V17.5998C6.35938 17.3883 6.53182 17.2168 6.7445 17.2168H38.1644C38.3771 17.2168 38.5495 17.3883 38.5495 17.5998V48.8478C38.5492 49.059 38.3771 49.2305 38.1644 49.2305ZM7.12962 48.4648H37.7793V17.9825H7.12962V48.4648Z" fill="black" style="fill:black;fill-opacity:1;"/>
<path d="M38.1645 17.9821C38.0606 17.9821 37.9571 17.9407 37.8811 17.8586C37.737 17.7031 37.7472 17.4606 37.9032 17.3177L49.3033 6.87082C49.4597 6.7275 49.7035 6.73759 49.8472 6.89274C49.9914 7.04824 49.9812 7.29072 49.8252 7.4337L38.4254 17.8809C38.3513 17.9487 38.2579 17.9821 38.1645 17.9821Z" fill="black" style="fill:black;fill-opacity:1;"/>
<path d="M6.74472 49.2304C6.70449 49.2304 6.66357 49.2241 6.62299 49.2105C6.42116 49.1437 6.31202 48.927 6.37918 48.7263L17.9056 14.2973C17.9728 14.0969 18.1903 13.988 18.3925 14.0548C18.5943 14.1216 18.7035 14.3383 18.6363 14.5391L7.1099 48.9681C7.05639 49.1288 6.90597 49.2304 6.74472 49.2304Z" fill="black" style="fill:black;fill-opacity:1;"/>
</g>
<defs>
<clipPath id="clip0_2139_4098">
<rect width="56" height="56" fill="white" style="fill:white;fill-opacity:1;"/>
</clipPath>
</defs>
</svg>
