<svg width="36" height="36" viewBox="0 0 36 36" fill="none" xmlns="http://www.w3.org/2000/svg">
<path d="M35.1191 35.9443L35.1191 0.82959L0.00062561 0.82959L0.000625609 35.9443L35.1191 35.9443Z" fill="#E0FE71" style="fill:#E0FE71;fill:color(display-p3 0.8784 0.9961 0.4431);fill-opacity:1;"/>
<path d="M4.20703 11.8656V31.4594H23.8032L30.9132 9.87075V5.31494H11.3959L4.20703 11.8656Z" fill="white" style="fill:white;fill-opacity:1;"/>
<path d="M23.8031 31.6995H4.20699C4.07435 31.6995 3.9668 31.592 3.9668 31.4594V11.8656C3.9668 11.7979 3.99516 11.7336 4.04512 11.688L11.234 5.13731C11.2783 5.09696 11.3358 5.07471 11.3956 5.07471H30.9128C31.0454 5.07471 31.153 5.18225 31.153 5.31488V9.87069C31.153 9.89621 31.1488 9.92151 31.141 9.94573L24.0309 31.5344C23.9988 31.633 23.9067 31.6995 23.8031 31.6995ZM4.44719 31.2194H23.6292L30.673 9.8323V5.55483H11.489L4.44719 11.9716V31.2194Z" fill="black" style="fill:black;fill-opacity:1;"/>
<path d="M30.9119 10.1109H11.3945C11.2619 10.1109 11.1543 10.0033 11.1543 9.87069V5.31488C11.1543 5.18225 11.2619 5.07471 11.3945 5.07471H30.9116C31.0443 5.07471 31.1518 5.18225 31.1518 5.31488V9.87069C31.1518 10.0033 31.0445 10.1109 30.9119 10.1109ZM11.6347 9.63052H30.6717V5.55483H11.6347V9.63052Z" fill="black" style="fill:black;fill-opacity:1;"/>
<path d="M23.8031 31.6996H4.20699C4.07435 31.6996 3.9668 31.5921 3.9668 31.4595V11.8657C3.9668 11.733 4.07435 11.6255 4.20699 11.6255H23.8031C23.9358 11.6255 24.0433 11.733 24.0433 11.8657V31.4597C24.0431 31.5921 23.9358 31.6996 23.8031 31.6996ZM4.44719 31.2195H23.5629V12.1056H4.44719V31.2195Z" fill="black" style="fill:black;fill-opacity:1;"/>
<path d="M23.8027 12.1055C23.7379 12.1055 23.6734 12.0796 23.626 12.0281C23.5361 11.9306 23.5425 11.7786 23.6398 11.6889L30.7499 5.13822C30.8474 5.04835 30.9994 5.05468 31.0891 5.15197C31.179 5.24947 31.1727 5.40152 31.0754 5.49117L23.9655 12.0421C23.9192 12.0846 23.861 12.1055 23.8027 12.1055Z" fill="black" style="fill:black;fill-opacity:1;"/>
<path d="M4.20518 31.6995C4.18009 31.6995 4.15456 31.6956 4.12926 31.6871C4.00338 31.6452 3.93531 31.5093 3.9772 31.3834L11.166 9.79475C11.2079 9.6691 11.3436 9.60082 11.4697 9.6427C11.5956 9.68459 11.6637 9.82049 11.6218 9.94635L4.43294 31.535C4.39956 31.6358 4.30575 31.6995 4.20518 31.6995Z" fill="black" style="fill:black;fill-opacity:1;"/>
</svg>
